<?xml version="1.0" standalone="no"?>
<!DOCTYPE svg PUBLIC "-//W3C//DTD SVG 20010904//EN"
 "http://www.w3.org/TR/2001/REC-SVG-20010904/DTD/svg10.dtd">
<svg version="1.0" xmlns="http://www.w3.org/2000/svg"
 width="450.000000pt" height="271.000000pt" viewBox="0 0 450.000000 271.000000"
 preserveAspectRatio="xMidYMid meet">

<g transform="translate(0.000000,271.000000) scale(0.100000,-0.100000)"
fill="#000000" stroke="none">
<path d="M1072 1793 c-168 -187 -291 -387 -328 -533 -22 -88 -16 -219 14 -276
11 -23 44 -62 73 -88 126 -113 344 -114 636 -2 48 18 520 219 1048 446 528
227 1013 435 1078 462 65 28 116 52 115 54 -2 2 -240 -60 -528 -137 -289 -77
-565 -150 -615 -163 -49 -13 -184 -49 -300 -80 -850 -227 -827 -222 -944 -213
-132 10 -233 83 -262 190 -25 91 2 242 65 367 14 27 24 50 22 50 -2 0 -35 -35
-74 -77z"/>
</g>
</svg>
